<?xml version="1.0" encoding="UTF-8"?>
<svg width="5987px" height="1713px" viewBox="0 0 5987 1713" version="1.1" xmlns="http://www.w3.org/2000/svg" xmlns:xlink="http://www.w3.org/1999/xlink">
    <!-- Generator: Sketch 51.3 (57544) - http://www.bohemiancoding.com/sketch -->
    <title>logo-color-text-padding</title>
    <desc>Created with Sketch.</desc>
    <defs></defs>
    <g id="logo-color-text-padding" stroke="none" stroke-width="1" fill="none" fill-rule="evenodd">
        <g id="logo-color-text" transform="translate(497.000000, 258.000000)">
            <path d="M1139.416,926.16 C1133.1893,926.16 1127.89669,923.980688 1123.538,919.622 C1119.17931,915.263312 1117,909.970698 1117,903.744 L1117,295.71 C1117,288.860632 1119.02365,283.256688 1123.071,278.898 C1127.11835,274.539312 1132.56663,272.36 1139.416,272.36 L1389.728,272.36 C1465.07104,272.36 1524.22379,290.105823 1567.188,325.598 C1610.15221,361.090177 1631.634,412.770994 1631.634,480.642 C1631.634,547.890336 1610.15221,598.792827 1567.188,633.351 C1524.22379,667.909173 1465.07104,685.188 1389.728,685.188 L1252.43,685.188 L1252.43,903.744 C1252.43,910.593368 1250.25069,916.041646 1245.892,920.089 C1241.53331,924.136354 1235.92937,926.16 1229.08,926.16 L1139.416,926.16 Z M1385.058,580.58 C1421.17285,580.58 1448.72557,572.018419 1467.717,554.895 C1486.70843,537.771581 1496.204,512.709498 1496.204,479.708 C1496.204,447.329171 1487.01976,422.111424 1468.651,404.054 C1450.28224,385.996576 1422.41819,376.968 1385.058,376.968 L1250.562,376.968 L1250.562,580.58 L1385.058,580.58 Z M1937.986,935.5 C1864.51097,935.5 1807.84887,916.820187 1767.998,879.46 C1728.14713,842.099813 1706.66535,790.418997 1703.552,724.416 L1702.618,683.32 L1703.552,642.224 C1706.66535,576.843673 1728.45846,525.318522 1768.932,487.647 C1809.40554,449.975478 1865.75631,431.14 1937.986,431.14 C2009.59302,431.14 2065.63246,449.975478 2106.106,487.647 C2146.57954,525.318522 2168.37265,576.843673 2171.486,642.224 C2172.10867,649.696037 2172.42,663.394567 2172.42,683.32 C2172.42,703.245433 2172.10867,716.943963 2171.486,724.416 C2168.37265,790.418997 2146.89087,842.099813 2107.04,879.46 C2067.18913,916.820187 2010.83836,935.5 1937.986,935.5 Z M1937.986,841.166 C1970.9875,841.166 1996.36091,830.892103 2014.107,810.344 C2031.85309,789.795897 2041.34866,759.596866 2042.594,719.746 C2043.21667,713.519302 2043.528,701.377424 2043.528,683.32 C2043.528,665.262576 2043.21667,653.120698 2042.594,646.894 C2041.34866,607.043134 2031.69742,576.688438 2013.64,555.829 C1995.58258,534.969562 1970.36483,524.54 1937.986,524.54 C1904.9845,524.54 1879.45542,534.969562 1861.398,555.829 C1843.34058,576.688438 1833.68934,607.043134 1832.444,646.894 L1831.51,683.32 L1832.444,719.746 C1833.68934,759.596866 1843.34058,789.795897 1861.398,810.344 C1879.45542,830.892103 1904.9845,841.166 1937.986,841.166 Z M2299.444,926.16 C2293.2173,926.16 2287.92469,923.980688 2283.566,919.622 C2279.20731,915.263312 2277.028,909.970698 2277.028,903.744 L2277.028,285.436 C2277.028,278.586632 2279.20731,273.138354 2283.566,269.091 C2287.92469,265.043646 2293.2173,263.02 2299.444,263.02 L2377.9,263.02 C2384.74937,263.02 2390.19765,265.043646 2394.245,269.091 C2398.29235,273.138354 2400.316,278.586632 2400.316,285.436 L2400.316,903.744 C2400.316,909.970698 2398.29235,915.263312 2394.245,919.622 C2390.19765,923.980688 2384.74937,926.16 2377.9,926.16 L2299.444,926.16 Z M2612.334,1103.62 C2607.35264,1103.62 2602.83835,1101.75202 2598.791,1098.016 C2594.74365,1094.27998 2592.72,1089.92136 2592.72,1084.94 C2592.72,1080.58131 2593.96532,1075.60003 2596.456,1069.996 L2670.242,897.206 L2490.914,474.104 C2488.42332,468.499972 2487.178,464.141349 2487.178,461.028 C2487.80067,455.423972 2489.97998,450.598354 2493.716,446.551 C2497.45202,442.503646 2502.12197,440.48 2507.726,440.48 L2585.248,440.48 C2596.45606,440.48 2604.55064,446.395274 2609.532,458.226 L2733.754,762.71 L2859.844,458.226 C2866.0707,446.395274 2874.78794,440.48 2885.996,440.48 L2961.65,440.48 C2967.25403,440.48 2971.92398,442.347981 2975.66,446.084 C2979.39602,449.820019 2981.264,454.178642 2981.264,459.16 C2981.264,463.518688 2980.01868,468.499972 2977.528,474.104 L2713.206,1085.874 C2708.22464,1097.70473 2699.5074,1103.62 2687.054,1103.62 L2612.334,1103.62 Z M3136.308,926.16 C3130.0813,926.16 3124.78869,923.980688 3120.43,919.622 C3116.07131,915.263312 3113.892,909.970698 3113.892,903.744 L3113.892,540.418 L3038.238,540.418 C3032.0113,540.418 3026.71869,538.238688 3022.36,533.88 C3018.00131,529.521312 3015.822,524.228698 3015.822,518.002 L3015.822,462.896 C3015.822,456.669302 3018.00131,451.376688 3022.36,447.018 C3026.71869,442.659312 3032.0113,440.48 3038.238,440.48 L3113.892,440.48 L3113.892,403.12 C3113.892,346.45705 3129.14718,304.271805 3159.658,276.563 C3190.16882,248.854195 3236.24569,235 3297.89,235 L3491.228,235 C3498.07737,235 3503.52565,237.023646 3507.573,241.071 C3511.62035,245.118354 3513.644,250.566632 3513.644,257.416 L3513.644,312.522 C3513.644,318.748698 3511.46469,324.041312 3507.106,328.4 C3502.74731,332.758688 3497.4547,334.938 3491.228,334.938 L3302.56,334.938 C3278.27588,334.938 3261.15272,340.853274 3251.19,352.684 C3241.22728,364.514726 3236.246,382.883209 3236.246,407.79 L3236.246,440.48 L3491.228,440.48 C3498.07737,440.48 3503.52565,442.503646 3507.573,446.551 C3511.62035,450.598354 3513.644,456.046632 3513.644,462.896 L3513.644,903.744 C3513.644,909.970698 3511.62035,915.263312 3507.573,919.622 C3503.52565,923.980688 3498.07737,926.16 3491.228,926.16 L3413.706,926.16 C3407.4793,926.16 3402.18669,923.980688 3397.828,919.622 C3393.46931,915.263312 3391.29,909.970698 3391.29,903.744 L3391.29,540.418 L3236.246,540.418 L3236.246,903.744 C3236.246,909.970698 3234.22235,915.263312 3230.175,919.622 C3226.12765,923.980688 3220.67937,926.16 3213.83,926.16 L3136.308,926.16 Z M3660.282,926.16 C3654.0553,926.16 3648.76269,923.980688 3644.404,919.622 C3640.04531,915.263312 3637.866,909.970698 3637.866,903.744 L3637.866,285.436 C3637.866,278.586632 3640.04531,273.138354 3644.404,269.091 C3648.76269,265.043646 3654.0553,263.02 3660.282,263.02 L3738.738,263.02 C3745.58737,263.02 3751.03565,265.043646 3755.083,269.091 C3759.13035,273.138354 3761.154,278.586632 3761.154,285.436 L3761.154,903.744 C3761.154,909.970698 3759.13035,915.263312 3755.083,919.622 C3751.03565,923.980688 3745.58737,926.16 3738.738,926.16 L3660.282,926.16 Z M3908.726,926.16 C3902.4993,926.16 3897.20669,923.980688 3892.848,919.622 C3888.48931,915.263312 3886.31,909.970698 3886.31,903.744 L3886.31,285.436 C3886.31,278.586632 3888.48931,273.138354 3892.848,269.091 C3897.20669,265.043646 3902.4993,263.02 3908.726,263.02 L3987.182,263.02 C3994.03137,263.02 3999.47965,265.043646 4003.527,269.091 C4007.57435,273.138354 4009.598,278.586632 4009.598,285.436 L4009.598,903.744 C4009.598,909.970698 4007.57435,915.263312 4003.527,919.622 C3999.47965,923.980688 3994.03137,926.16 3987.182,926.16 L3908.726,926.16 Z M4343.97,935.5 C4274.23098,935.5 4218.96987,915.574866 4178.185,875.724 C4137.40013,835.873134 4115.76268,779.211034 4113.272,705.736 L4112.338,682.386 C4112.338,604.552277 4132.73013,543.220224 4173.515,498.388 C4214.29987,453.555776 4270.80631,431.14 4343.036,431.14 C4417.1337,431.14 4474.2628,453.555776 4514.425,498.388 C4554.5872,543.220224 4574.668,602.995626 4574.668,677.716 L4574.668,697.33 C4574.668,703.556698 4572.48869,708.849312 4568.13,713.208 C4563.77131,717.566688 4558.16737,719.746 4551.318,719.746 L4241.23,719.746 L4241.23,727.218 C4242.47534,762.087508 4251.97091,790.885553 4269.717,813.613 C4287.46309,836.340447 4311.90251,847.704 4343.036,847.704 C4378.52818,847.704 4407.48189,833.38281 4429.898,804.74 C4435.50203,797.890632 4439.86065,793.687674 4442.974,792.131 C4446.08735,790.574326 4451.37996,789.796 4458.852,789.796 L4541.044,789.796 C4546.64803,789.796 4551.47365,791.352651 4555.521,794.466 C4559.56835,797.579349 4561.592,801.937972 4561.592,807.542 C4561.592,822.486075 4552.71909,840.076232 4534.973,860.313 C4517.22691,880.549768 4491.8535,898.139925 4458.852,913.084 C4425.8505,928.028075 4387.55688,935.5 4343.97,935.5 Z M4445.776,640.356 L4445.776,638.488 C4445.776,601.750483 4436.59176,572.329777 4418.223,550.225 C4399.85424,528.120223 4374.79216,517.068 4343.036,517.068 C4311.27984,517.068 4286.37342,528.120223 4268.316,550.225 C4250.25858,572.329777 4241.23,601.750483 4241.23,638.488 L4241.23,640.356 L4445.776,640.356 Z M4696.088,926.16 C4689.8613,926.16 4684.56869,923.980688 4680.21,919.622 C4675.85131,915.263312 4673.672,909.970698 4673.672,903.744 L4673.672,463.83 C4673.672,456.980632 4675.85131,451.376688 4680.21,447.018 C4684.56869,442.659312 4689.8613,440.48 4696.088,440.48 L4772.676,440.48 C4779.52537,440.48 4785.12931,442.659312 4789.488,447.018 C4793.84669,451.376688 4796.026,456.980632 4796.026,463.83 L4796.026,502.124 C4827.15949,461.027795 4871.99104,440.48 4930.522,440.48 L4969.75,440.48 C4976.59937,440.48 4982.04765,442.503646 4986.095,446.551 C4990.14235,450.598354 4992.166,456.046632 4992.166,462.896 L4992.166,531.078 C4992.166,537.304698 4990.14235,542.597312 4986.095,546.956 C4982.04765,551.314688 4976.59937,553.494 4969.75,553.494 L4895.964,553.494 C4866.69852,553.494 4843.66008,561.899916 4826.848,578.712 C4810.03592,595.524084 4801.63,618.56252 4801.63,647.828 L4801.63,903.744 C4801.63,909.970698 4799.45069,915.263312 4795.092,919.622 C4790.73331,923.980688 4785.4407,926.16 4779.214,926.16 L4696.088,926.16 Z" id="Polyfiller" fill="#010E25"></path>
            <g id="logo-color" stroke-width="1">
                <g id="Group">
                    <path d="M0.968716777,492.847178 L642.810425,76.0302988 C747.630161,150.590277 816,273.015292 816,411.40109 C816,630.572614 644.50567,809.709176 428.323013,822.067094 L428.323013,1158 C428.323013,1180.09139 410.414403,1198 388.323013,1198 L171.358622,1198 C149.267232,1198 131.358622,1180.09139 131.358622,1158 L131.358622,719.140159 C65.7664923,660.947154 18.9089872,582.123626 0.968716777,492.847178 Z" id="Combined-Shape" fill="#69F0AE" fill-rule="nonzero"></path>
                    <path d="M132,103.58826 C204.736608,39.1395672 300.486036,0 405.393253,0 C474.832403,0 540.259298,17.1480243 597.655984,47.433253 L132,349.833824 L132,103.58826 Z" id="Combined-Shape" fill="#11C3B3" fill-rule="nonzero"></path>
                </g>
            </g>
        </g>
    </g>
</svg>