<?xml version="1.0" encoding="UTF-8"?>
<svg width="5852px" height="1198px" viewBox="0 0 5852 1198" version="1.1" xmlns="http://www.w3.org/2000/svg" xmlns:xlink="http://www.w3.org/1999/xlink">
    <!-- Generator: Sketch 51.3 (57544) - http://www.bohemiancoding.com/sketch -->
    <title>logo-color-text</title>
    <desc>Created with Sketch.</desc>
    <defs>
        <linearGradient x1="50%" y1="100%" x2="50%" y2="3.061617e-15%" id="linearGradient-1">
            <stop stop-color="#00FFAF" offset="0%"></stop>
            <stop stop-color="#20E8A9" offset="100%"></stop>
        </linearGradient>
    </defs>
    <g id="logo-color-text" stroke="none" stroke-width="1" fill="none" fill-rule="evenodd">
        <path d="M1110.218,926.16 C1103.36863,926.16 1097.45336,923.669358 1092.472,918.688 C1087.49064,913.706642 1085,907.791368 1085,900.942 L1085,297.578 C1085,290.728632 1087.49064,284.813358 1092.472,279.832 C1097.45336,274.850642 1103.36863,272.36 1110.218,272.36 L1393.22,272.36 C1480.39377,272.36 1549.04208,291.662474 1599.167,330.268 C1649.29192,368.873526 1674.354,425.846957 1674.354,501.19 C1674.354,575.910374 1649.44758,631.482818 1599.634,667.909 C1549.82042,704.335182 1481.01644,722.548 1393.22,722.548 L1327.84,722.548 L1327.84,900.942 C1327.84,907.791368 1325.34936,913.706642 1320.368,918.688 C1315.38664,923.669358 1309.47137,926.16 1302.622,926.16 L1110.218,926.16 Z M1388.55,549.758 C1399.75806,549.758 1409.72062,545.555042 1418.438,537.149 C1427.15538,528.742958 1431.514,516.134084 1431.514,499.322 C1431.514,485.000595 1428.08937,472.547386 1421.24,461.962 C1414.39063,451.376614 1403.49407,446.084 1388.55,446.084 L1323.17,446.084 L1323.17,549.758 L1388.55,549.758 Z M2021.31,935.5 C1850.07581,935.5 1759.79005,866.073361 1750.45,727.218 C1749.82733,717.877953 1749.516,703.245433 1749.516,683.32 C1749.516,663.394567 1749.82733,648.762047 1750.45,639.422 C1754.80869,571.550994 1780.6491,519.870177 1827.972,484.378 C1875.2949,448.885823 1939.74026,431.14 2021.31,431.14 C2102.87974,431.14 2167.3251,448.885823 2214.648,484.378 C2261.9709,519.870177 2287.81131,571.550994 2292.17,639.422 C2293.41534,658.102093 2294.038,672.734614 2294.038,683.32 C2294.038,693.905386 2293.41534,708.537907 2292.17,727.218 C2282.82995,866.073361 2192.54419,935.5 2021.31,935.5 Z M2021.31,786.06 C2038.12208,786.06 2049.01864,781.545712 2054,772.517 C2058.98136,763.488288 2062.09466,746.832121 2063.34,722.548 C2063.96267,716.321302 2064.274,703.245433 2064.274,683.32 C2064.274,663.394567 2063.96267,650.318698 2063.34,644.092 C2061.47199,620.430548 2058.04736,603.930047 2053.066,594.59 C2048.08464,585.249953 2037.49941,580.58 2021.31,580.58 C2005.12059,580.58 1994.53536,585.249953 1989.554,594.59 C1984.57264,603.930047 1981.14801,620.430548 1979.28,644.092 L1978.346,683.32 L1979.28,722.548 C1980.52534,746.832121 1983.63864,763.488288 1988.62,772.517 C1993.60136,781.545712 2004.49792,786.06 2021.31,786.06 Z M2423.372,926.16 C2416.52263,926.16 2410.60736,923.669358 2405.626,918.688 C2400.64464,913.706642 2398.154,907.791368 2398.154,900.942 L2398.154,288.238 C2398.154,281.388632 2400.64464,275.473358 2405.626,270.492 C2410.60736,265.510642 2416.52263,263.02 2423.372,263.02 L2590.558,263.02 C2597.40737,263.02 2603.32264,265.510642 2608.304,270.492 C2613.28536,275.473358 2615.776,281.388632 2615.776,288.238 L2615.776,900.942 C2615.776,907.791368 2613.28536,913.706642 2608.304,918.688 C2603.32264,923.669358 2597.40737,926.16 2590.558,926.16 L2423.372,926.16 Z M2831.038,1103.62 C2825.43397,1103.62 2820.60835,1101.75202 2816.561,1098.016 C2812.51365,1094.27998 2810.49,1089.61003 2810.49,1084.006 C2810.49,1083.38333 2810.33433,1082.13801 2810.023,1080.27 C2809.71167,1078.40199 2810.17866,1076.53401 2811.424,1074.666 L2886.144,895.338 L2705.882,469.434 C2705.25933,467.565991 2704.948,465.386679 2704.948,462.896 C2706.19334,456.669302 2708.99531,451.376688 2713.354,447.018 C2717.71269,442.659312 2722.69397,440.48 2728.298,440.48 L2886.144,440.48 C2900.4654,440.48 2910.42797,447.951925 2916.032,462.896 L2992.62,675.848 L3072.01,462.896 C3078.2367,447.951925 3088.82193,440.48 3103.766,440.48 L3259.744,440.48 C3265.34803,440.48 3270.32931,442.503646 3274.688,446.551 C3279.04669,450.598354 3281.226,455.112642 3281.226,460.094 C3281.226,463.830019 3280.91467,466.943321 3280.292,469.434 L3016.904,1081.204 C3010.6773,1096.14807 2999.78074,1103.62 2984.214,1103.62 L2831.038,1103.62 Z M3450.722,926.16 C3443.87263,926.16 3437.95736,923.669358 3432.976,918.688 C3427.99464,913.706642 3425.504,907.791368 3425.504,900.942 L3425.504,603.93 L3361.058,603.93 C3354.20863,603.93 3348.29336,601.439358 3343.312,596.458 C3338.33064,591.476642 3335.84,585.561368 3335.84,578.712 L3335.84,465.698 C3335.84,458.848632 3338.33064,452.933358 3343.312,447.952 C3348.29336,442.970642 3354.20863,440.48 3361.058,440.48 L3425.504,440.48 L3425.504,424.602 C3425.504,353.617645 3446.98579,304.271805 3489.95,276.563 C3532.91421,248.854195 3592.37829,235 3668.344,235 L3987.772,235 C3994.62137,235 4000.53664,237.490642 4005.518,242.472 C4010.49936,247.453358 4012.99,253.368632 4012.99,260.218 L4012.99,373.232 C4012.99,380.081368 4010.49936,385.996642 4005.518,390.978 C4000.53664,395.959358 3994.62137,398.45 3987.772,398.45 L3679.552,398.45 C3652.7772,398.45 3639.39,408.723897 3639.39,429.272 L3639.39,440.48 L3987.772,440.48 C3994.62137,440.48 4000.53664,442.970642 4005.518,447.952 C4010.49936,452.933358 4012.99,458.848632 4012.99,465.698 L4012.99,900.942 C4012.99,907.791368 4010.49936,913.706642 4005.518,918.688 C4000.53664,923.669358 3994.62137,926.16 3987.772,926.16 L3824.322,926.16 C3817.47263,926.16 3811.55736,923.669358 3806.576,918.688 C3801.59464,913.706642 3799.104,907.791368 3799.104,900.942 L3799.104,603.93 L3639.39,603.93 L3639.39,900.942 C3639.39,907.791368 3636.89936,913.706642 3631.918,918.688 C3626.93664,923.669358 3621.02137,926.16 3614.172,926.16 L3450.722,926.16 Z M4157.268,926.16 C4150.41863,926.16 4144.50336,923.669358 4139.522,918.688 C4134.54064,913.706642 4132.05,907.791368 4132.05,900.942 L4132.05,288.238 C4132.05,281.388632 4134.54064,275.473358 4139.522,270.492 C4144.50336,265.510642 4150.41863,263.02 4157.268,263.02 L4324.454,263.02 C4331.30337,263.02 4337.21864,265.510642 4342.2,270.492 C4347.18136,275.473358 4349.672,281.388632 4349.672,288.238 L4349.672,900.942 C4349.672,907.791368 4347.18136,913.706642 4342.2,918.688 C4337.21864,923.669358 4331.30337,926.16 4324.454,926.16 L4157.268,926.16 Z M4493.95,926.16 C4487.10063,926.16 4481.18536,923.669358 4476.204,918.688 C4471.22264,913.706642 4468.732,907.791368 4468.732,900.942 L4468.732,288.238 C4468.732,281.388632 4471.22264,275.473358 4476.204,270.492 C4481.18536,265.510642 4487.10063,263.02 4493.95,263.02 L4661.136,263.02 C4667.98537,263.02 4673.90064,265.510642 4678.882,270.492 C4683.86336,275.473358 4686.354,281.388632 4686.354,288.238 L4686.354,900.942 C4686.354,907.791368 4683.86336,913.706642 4678.882,918.688 C4673.90064,923.669358 4667.98537,926.16 4661.136,926.16 L4493.95,926.16 Z M5056.66,935.5 C4971.97691,935.5 4906.28623,914.79654 4859.586,873.389 C4812.88577,831.98146 4789.536,768.93709 4789.536,684.254 L4789.536,677.716 C4790.78134,598.636938 4815.22076,537.77188 4862.855,495.119 C4910.48924,452.46612 4974.77893,431.14 5055.726,431.14 C5114.25696,431.14 5163.6028,442.503553 5203.765,465.231 C5243.9272,487.958447 5273.65924,518.468809 5292.962,556.763 C5312.26476,595.057191 5321.916,637.865097 5321.916,685.188 L5321.916,713.208 C5321.916,720.057368 5319.42536,725.972642 5314.444,730.954 C5309.46264,735.935358 5303.54737,738.426 5296.698,738.426 L5018.366,738.426 L5018.366,743.096 C5018.366,762.398763 5021.16797,776.719953 5026.772,786.06 C5032.37603,795.400047 5041.71593,800.07 5054.792,800.07 C5059.77336,800.07 5063.82065,798.980344 5066.934,796.801 C5070.04735,794.621656 5075.02863,790.107368 5081.878,783.258 C5087.48203,777.653972 5092.15198,774.073674 5095.888,772.517 C5099.62402,770.960326 5105.22796,770.182 5112.7,770.182 L5289.226,770.182 C5294.83003,770.182 5299.65565,771.894316 5303.703,775.319 C5307.75035,778.743684 5309.774,783.257972 5309.774,788.862 C5309.774,806.296754 5300.12276,826.688883 5280.82,850.039 C5261.51724,873.389117 5232.71919,893.469916 5194.425,910.282 C5156.13081,927.094084 5110.2096,935.5 5056.66,935.5 Z M5093.086,621.676 L5093.086,620.742 C5093.086,581.513804 5080.63279,561.9 5055.726,561.9 C5030.81921,561.9 5018.366,581.513804 5018.366,620.742 L5018.366,621.676 L5093.086,621.676 Z M5447.514,926.16 C5440.66463,926.16 5434.74936,923.669358 5429.768,918.688 C5424.78664,913.706642 5422.296,907.791368 5422.296,900.942 L5422.296,465.698 C5422.296,458.848632 5424.78664,452.933358 5429.768,447.952 C5434.74936,442.970642 5440.66463,440.48 5447.514,440.48 L5610.964,440.48 C5617.81337,440.48 5623.72864,442.970642 5628.71,447.952 C5633.69136,452.933358 5636.182,458.848632 5636.182,465.698 L5636.182,498.388 C5656.7301,480.330576 5679.45721,466.165051 5704.364,455.891 C5729.27079,445.616949 5755.1112,440.48 5781.886,440.48 L5826.718,440.48 C5833.56737,440.48 5839.48264,442.970642 5844.464,447.952 C5849.44536,452.933358 5851.936,458.848632 5851.936,465.698 L5851.936,611.402 C5851.936,618.251368 5849.44536,624.166642 5844.464,629.148 C5839.48264,634.129358 5833.56737,636.62 5826.718,636.62 L5706.232,636.62 C5668.87181,636.62 5650.192,655.299813 5650.192,692.66 L5650.192,900.942 C5650.192,907.791368 5647.70136,913.706642 5642.72,918.688 C5637.73864,923.669358 5631.82337,926.16 5624.974,926.16 L5447.514,926.16 Z" id="Polyfiller" fill="#010E25"></path>
        <g id="logo-color">
            <g id="Group">
                <path d="M0.938435922,494.815064 L641.204189,79.0216229 C745.784747,153.380357 814,275.484564 814,413.508961 C814,632.093165 642.916815,810.74969 427.252441,823.074492 L427.252441,1158 C427.252441,1180.09139 409.343831,1198 387.252441,1198 L171,1198 C148.90861,1198 131,1180.09139 131,1158 L131,720.423373 C65.5842971,662.403316 18.8473521,583.820076 0.938435922,494.815064 Z" id="Combined-Shape" fill="url(#linearGradient-1)" fill-rule="nonzero"></path>
                <path d="M131,104.833592 C202.853244,39.6101007 297.439824,0 401.072975,0 C473.83908,0 542.145083,19.5284063 601.253016,53.739957 L131,359.125871 L131,104.833592 Z" id="Combined-Shape" fill="#11C3B3" fill-rule="nonzero"></path>
            </g>
        </g>
    </g>
</svg>